<svg xmlns="http://www.w3.org/2000/svg" xmlns:xlink="http://www.w3.org/1999/xlink" width="500" zoomAndPan="magnify" viewBox="0 0 375 74.999997" height="100" preserveAspectRatio="xMidYMid meet" version="1.0"><defs><g/><clipPath id="0f67c24635"><path d="M 75 30 L 112.027344 30 L 112.027344 75 L 75 75 Z M 75 30 " clip-rule="nonzero"/></clipPath><clipPath id="6024ea9459"><path d="M 14.527344 31 L 50 31 L 50 75 L 14.527344 75 Z M 14.527344 31 " clip-rule="nonzero"/></clipPath></defs><g fill="#272727" fill-opacity="1"><g transform="translate(151.243233, 37.381256)"><g><path d="M 16.703125 0 L 13.875 0 L 13.875 -6.921875 L 5.015625 -6.921875 L 5.015625 0 L 2.203125 0 L 2.203125 -16.71875 L 5.015625 -16.71875 L 5.015625 -9.453125 L 13.875 -9.453125 L 13.875 -16.71875 L 16.703125 -16.71875 Z M 16.703125 0 "/></g></g></g><g fill="#272727" fill-opacity="1"><g transform="translate(173.909822, 37.381256)"><g><path d="M 13 -3.78125 L 4.5625 -3.78125 L 2.96875 0 L 0.03125 0 L 7.40625 -16.71875 L 10.296875 -16.71875 L 17.609375 0 L 14.59375 0 Z M 11.921875 -6.28125 L 8.765625 -13.71875 L 5.609375 -6.28125 Z M 11.921875 -6.28125 "/></g></g></g><g fill="#272727" fill-opacity="1"><g transform="translate(195.310563, 37.381256)"><g><path d="M 2.203125 -16.71875 L 8.859375 -16.71875 C 10.960938 -16.71875 12.59375 -16.21875 13.75 -15.21875 C 14.90625 -14.226562 15.484375 -12.828125 15.484375 -11.015625 C 15.484375 -9.117188 14.90625 -7.648438 13.75 -6.609375 C 12.59375 -5.566406 10.960938 -5.046875 8.859375 -5.046875 L 5.015625 -5.046875 L 5.015625 0 L 2.203125 0 Z M 5.015625 -14.1875 L 5.015625 -7.578125 L 8.75 -7.578125 C 11.4375 -7.578125 12.78125 -8.695312 12.78125 -10.9375 C 12.78125 -13.101562 11.4375 -14.1875 8.75 -14.1875 Z M 5.015625 -14.1875 "/></g></g></g><g fill="#272727" fill-opacity="1"><g transform="translate(215.158847, 37.381256)"><g><path d="M 2.203125 -16.71875 L 8.859375 -16.71875 C 10.960938 -16.71875 12.59375 -16.21875 13.75 -15.21875 C 14.90625 -14.226562 15.484375 -12.828125 15.484375 -11.015625 C 15.484375 -9.117188 14.90625 -7.648438 13.75 -6.609375 C 12.59375 -5.566406 10.960938 -5.046875 8.859375 -5.046875 L 5.015625 -5.046875 L 5.015625 0 L 2.203125 0 Z M 5.015625 -14.1875 L 5.015625 -7.578125 L 8.75 -7.578125 C 11.4375 -7.578125 12.78125 -8.695312 12.78125 -10.9375 C 12.78125 -13.101562 11.4375 -14.1875 8.75 -14.1875 Z M 5.015625 -14.1875 "/></g></g></g><g fill="#272727" fill-opacity="1"><g transform="translate(235.007131, 37.381256)"><g><path d="M 9.046875 -5.5625 L 9.046875 0 L 6.265625 0 L 6.265625 -5.46875 L 0.03125 -16.71875 L 2.859375 -16.71875 L 7.640625 -8.578125 L 12.328125 -16.71875 L 15.1875 -16.71875 Z M 9.046875 -5.5625 "/></g></g></g><g fill="#272727" fill-opacity="1"><g transform="translate(253.995604, 37.381256)"><g><path d="M 16.703125 0 L 13.921875 0 L 5.015625 -12 L 5.015625 0 L 2.203125 0 L 2.203125 -16.71875 L 4.96875 -16.71875 L 13.921875 -4.703125 L 13.921875 -16.71875 L 16.703125 -16.71875 Z M 16.703125 0 "/></g></g></g><g fill="#272727" fill-opacity="1"><g transform="translate(276.686079, 37.381256)"><g><path d="M 14.140625 -14.1875 L 5.015625 -14.1875 L 5.015625 -9.671875 L 13.1875 -9.671875 L 13.1875 -7.140625 L 5.015625 -7.140625 L 5.015625 -2.53125 L 14.4375 -2.53125 L 14.4375 0 L 2.203125 0 L 2.203125 -16.71875 L 14.140625 -16.71875 Z M 14.140625 -14.1875 "/></g></g></g><g fill="#272727" fill-opacity="1"><g transform="translate(296.128343, 37.381256)"><g><path d="M 7.6875 -16.84375 C 9.851562 -16.84375 11.804688 -16.269531 13.546875 -15.125 L 12.375 -12.640625 C 10.664062 -13.671875 9.035156 -14.1875 7.484375 -14.1875 C 6.640625 -14.1875 5.972656 -14.035156 5.484375 -13.734375 C 4.992188 -13.429688 4.75 -13 4.75 -12.4375 C 4.75 -11.882812 4.972656 -11.410156 5.421875 -11.015625 C 5.867188 -10.628906 6.425781 -10.34375 7.09375 -10.15625 C 7.757812 -9.976562 8.484375 -9.75 9.265625 -9.46875 C 10.046875 -9.1875 10.769531 -8.890625 11.4375 -8.578125 C 12.113281 -8.273438 12.671875 -7.789062 13.109375 -7.125 C 13.546875 -6.46875 13.765625 -5.671875 13.765625 -4.734375 C 13.765625 -3.265625 13.175781 -2.09375 12 -1.21875 C 10.832031 -0.34375 9.316406 0.09375 7.453125 0.09375 C 6.179688 0.09375 4.945312 -0.144531 3.75 -0.625 C 2.550781 -1.101562 1.507812 -1.75 0.625 -2.5625 L 1.84375 -5 C 2.6875 -4.21875 3.613281 -3.613281 4.625 -3.1875 C 5.632812 -2.769531 6.59375 -2.5625 7.5 -2.5625 C 8.488281 -2.5625 9.253906 -2.738281 9.796875 -3.09375 C 10.347656 -3.445312 10.625 -3.945312 10.625 -4.59375 C 10.625 -5.164062 10.398438 -5.644531 9.953125 -6.03125 C 9.515625 -6.425781 8.957031 -6.710938 8.28125 -6.890625 C 7.613281 -7.078125 6.890625 -7.300781 6.109375 -7.5625 C 5.335938 -7.820312 4.613281 -8.097656 3.9375 -8.390625 C 3.269531 -8.691406 2.710938 -9.164062 2.265625 -9.8125 C 1.816406 -10.46875 1.59375 -11.257812 1.59375 -12.1875 C 1.59375 -13.601562 2.148438 -14.734375 3.265625 -15.578125 C 4.390625 -16.421875 5.863281 -16.84375 7.6875 -16.84375 Z M 7.6875 -16.84375 "/></g></g></g><g fill="#272727" fill-opacity="1"><g transform="translate(314.758544, 37.381256)"><g><path d="M 7.6875 -16.84375 C 9.851562 -16.84375 11.804688 -16.269531 13.546875 -15.125 L 12.375 -12.640625 C 10.664062 -13.671875 9.035156 -14.1875 7.484375 -14.1875 C 6.640625 -14.1875 5.972656 -14.035156 5.484375 -13.734375 C 4.992188 -13.429688 4.75 -13 4.75 -12.4375 C 4.75 -11.882812 4.972656 -11.410156 5.421875 -11.015625 C 5.867188 -10.628906 6.425781 -10.34375 7.09375 -10.15625 C 7.757812 -9.976562 8.484375 -9.75 9.265625 -9.46875 C 10.046875 -9.1875 10.769531 -8.890625 11.4375 -8.578125 C 12.113281 -8.273438 12.671875 -7.789062 13.109375 -7.125 C 13.546875 -6.46875 13.765625 -5.671875 13.765625 -4.734375 C 13.765625 -3.265625 13.175781 -2.09375 12 -1.21875 C 10.832031 -0.34375 9.316406 0.09375 7.453125 0.09375 C 6.179688 0.09375 4.945312 -0.144531 3.75 -0.625 C 2.550781 -1.101562 1.507812 -1.75 0.625 -2.5625 L 1.84375 -5 C 2.6875 -4.21875 3.613281 -3.613281 4.625 -3.1875 C 5.632812 -2.769531 6.59375 -2.5625 7.5 -2.5625 C 8.488281 -2.5625 9.253906 -2.738281 9.796875 -3.09375 C 10.347656 -3.445312 10.625 -3.945312 10.625 -4.59375 C 10.625 -5.164062 10.398438 -5.644531 9.953125 -6.03125 C 9.515625 -6.425781 8.957031 -6.710938 8.28125 -6.890625 C 7.613281 -7.078125 6.890625 -7.300781 6.109375 -7.5625 C 5.335938 -7.820312 4.613281 -8.097656 3.9375 -8.390625 C 3.269531 -8.691406 2.710938 -9.164062 2.265625 -9.8125 C 1.816406 -10.46875 1.59375 -11.257812 1.59375 -12.1875 C 1.59375 -13.601562 2.148438 -14.734375 3.265625 -15.578125 C 4.390625 -16.421875 5.863281 -16.84375 7.6875 -16.84375 Z M 7.6875 -16.84375 "/></g></g></g><g fill="#272727" fill-opacity="1"><g transform="translate(203.896285, 56.99647)"><g><path d="M 1.203125 -9.15625 L 4.859375 -9.15625 C 6.003906 -9.15625 6.890625 -8.878906 7.515625 -8.328125 C 8.148438 -7.785156 8.46875 -7.019531 8.46875 -6.03125 C 8.46875 -4.988281 8.148438 -4.179688 7.515625 -3.609375 C 6.890625 -3.046875 6.003906 -2.765625 4.859375 -2.765625 L 2.75 -2.765625 L 2.75 0 L 1.203125 0 Z M 2.75 -7.765625 L 2.75 -4.140625 L 4.78125 -4.140625 C 6.257812 -4.140625 7 -4.753906 7 -5.984375 C 7 -7.171875 6.257812 -7.765625 4.78125 -7.765625 Z M 2.75 -7.765625 "/></g></g></g><g fill="#272727" fill-opacity="1"><g transform="translate(214.767649, 56.99647)"><g><path d="M 7.015625 0 L 5.328125 -2.765625 C 5.242188 -2.765625 5.109375 -2.765625 4.921875 -2.765625 L 2.75 -2.765625 L 2.75 0 L 1.203125 0 L 1.203125 -9.15625 L 4.921875 -9.15625 C 6.085938 -9.15625 6.992188 -8.878906 7.640625 -8.328125 C 8.285156 -7.785156 8.609375 -7.019531 8.609375 -6.03125 C 8.609375 -5.300781 8.441406 -4.679688 8.109375 -4.171875 C 7.785156 -3.660156 7.316406 -3.289062 6.703125 -3.0625 L 8.765625 0 Z M 2.75 -4.140625 L 4.921875 -4.140625 C 6.398438 -4.140625 7.140625 -4.753906 7.140625 -5.984375 C 7.140625 -7.171875 6.398438 -7.765625 4.921875 -7.765625 L 2.75 -7.765625 Z M 2.75 -4.140625 "/></g></g></g><g fill="#272727" fill-opacity="1"><g transform="translate(226.293002, 56.99647)"><g><path d="M 1.84375 -7.859375 C 2.78125 -8.742188 3.929688 -9.1875 5.296875 -9.1875 C 6.660156 -9.1875 7.8125 -8.742188 8.75 -7.859375 C 9.6875 -6.984375 10.15625 -5.890625 10.15625 -4.578125 C 10.15625 -3.265625 9.6875 -2.160156 8.75 -1.265625 C 7.8125 -0.378906 6.660156 0.0625 5.296875 0.0625 C 3.929688 0.0625 2.78125 -0.378906 1.84375 -1.265625 C 0.90625 -2.160156 0.4375 -3.265625 0.4375 -4.578125 C 0.4375 -5.890625 0.90625 -6.984375 1.84375 -7.859375 Z M 5.3125 -7.8125 C 4.40625 -7.8125 3.628906 -7.5 2.984375 -6.875 C 2.335938 -6.25 2.015625 -5.484375 2.015625 -4.578125 C 2.015625 -3.671875 2.335938 -2.898438 2.984375 -2.265625 C 3.640625 -1.640625 4.414062 -1.328125 5.3125 -1.328125 C 6.207031 -1.328125 6.972656 -1.640625 7.609375 -2.265625 C 8.242188 -2.898438 8.5625 -3.671875 8.5625 -4.578125 C 8.5625 -5.484375 8.242188 -6.25 7.609375 -6.875 C 6.972656 -7.5 6.207031 -7.8125 5.3125 -7.8125 Z M 5.3125 -7.8125 "/></g></g></g><g fill="#272727" fill-opacity="1"><g transform="translate(238.956307, 56.99647)"><g><path d="M 5.515625 -9.15625 L 5.515625 -2.828125 C 5.515625 -1.910156 5.257812 -1.195312 4.75 -0.6875 C 4.25 -0.1875 3.554688 0.0625 2.671875 0.0625 C 1.585938 0.0625 0.6875 -0.375 -0.03125 -1.25 L 0.703125 -2.4375 C 1.328125 -1.757812 1.976562 -1.421875 2.65625 -1.421875 C 3.070312 -1.421875 3.394531 -1.546875 3.625 -1.796875 C 3.851562 -2.046875 3.96875 -2.40625 3.96875 -2.875 L 3.96875 -7.765625 L 0.796875 -7.765625 L 0.796875 -9.15625 Z M 5.515625 -9.15625 "/></g></g></g><g fill="#272727" fill-opacity="1"><g transform="translate(247.551779, 56.99647)"><g><path d="M 7.75 -7.765625 L 2.75 -7.765625 L 2.75 -5.296875 L 7.21875 -5.296875 L 7.21875 -3.90625 L 2.75 -3.90625 L 2.75 -1.390625 L 7.90625 -1.390625 L 7.90625 0 L 1.203125 0 L 1.203125 -9.15625 L 7.75 -9.15625 Z M 7.75 -7.765625 "/></g></g></g><g fill="#272727" fill-opacity="1"><g transform="translate(258.200788, 56.99647)"><g><path d="M 5.25 -9.1875 C 5.894531 -9.1875 6.523438 -9.0625 7.140625 -8.8125 C 7.753906 -8.570312 8.285156 -8.226562 8.734375 -7.78125 L 7.828125 -6.65625 C 7.503906 -7.007812 7.113281 -7.289062 6.65625 -7.5 C 6.207031 -7.71875 5.75 -7.828125 5.28125 -7.828125 C 4.363281 -7.828125 3.585938 -7.515625 2.953125 -6.890625 C 2.328125 -6.265625 2.015625 -5.503906 2.015625 -4.609375 C 2.015625 -3.703125 2.328125 -2.9375 2.953125 -2.3125 C 3.585938 -1.6875 4.363281 -1.375 5.28125 -1.375 C 6.226562 -1.375 7.078125 -1.734375 7.828125 -2.453125 L 8.75 -1.4375 C 8.28125 -0.976562 7.726562 -0.613281 7.09375 -0.34375 C 6.46875 -0.0703125 5.835938 0.0625 5.203125 0.0625 C 3.859375 0.0625 2.726562 -0.378906 1.8125 -1.265625 C 0.894531 -2.160156 0.4375 -3.269531 0.4375 -4.59375 C 0.4375 -5.894531 0.898438 -6.984375 1.828125 -7.859375 C 2.765625 -8.742188 3.90625 -9.1875 5.25 -9.1875 Z M 5.25 -9.1875 "/></g></g></g><g fill="#272727" fill-opacity="1"><g transform="translate(269.386068, 56.99647)"><g><path d="M 7.453125 -7.765625 L 4.546875 -7.765625 L 4.546875 0 L 3.015625 0 L 3.015625 -7.765625 L 0.125 -7.765625 L 0.125 -9.15625 L 7.453125 -9.15625 Z M 7.453125 -7.765625 "/></g></g></g><path fill="#80cc28" d="M 69.03125 28.902344 C 68.75 22.230469 83.765625 6.652344 83.765625 6.652344 C 83.765625 6.652344 66.085938 19.171875 59.671875 17.375 C 54.601562 15.960938 45.726562 -0.566406 45.726562 -0.566406 C 46.992188 3.214844 48.800781 9.542969 49.980469 17.636719 C 51.570312 28.574219 52.203125 44.695312 47.078125 62.050781 C 47.078125 62.050781 55.089844 44.460938 60.53125 42.429688 C 66.773438 40.097656 85.582031 49.832031 85.582031 49.832031 C 85.582031 49.832031 69.3125 35.574219 69.03125 28.902344 " fill-opacity="1" fill-rule="nonzero"/><path fill="#80cc28" d="M 61.550781 16.367188 C 64.847656 16.488281 67.640625 13.359375 67.789062 9.375 C 67.9375 5.390625 65.386719 2.058594 62.089844 1.9375 C 58.792969 1.8125 55.996094 4.941406 55.851562 8.925781 C 55.699219 12.914062 58.253906 16.242188 61.550781 16.367188 " fill-opacity="1" fill-rule="nonzero"/><g clip-path="url(#0f67c24635)"><path fill="#8c52ff" d="M 90.625 49.175781 C 91.8125 44.328125 83.105469 30.6875 83.105469 30.6875 C 83.105469 30.6875 94.214844 42.484375 99.183594 42.117188 C 103.101562 41.832031 112.042969 31.039062 112.042969 31.039062 C 110.558594 33.621094 108.300781 37.988281 106.242188 43.746094 C 103.464844 51.523438 101.796875 60.925781 108.191406 75.933594 C 108.191406 75.933594 98.542969 62.644531 94.855469 60.347656 C 90.625 57.714844 75.410156 62.058594 75.410156 62.058594 C 75.410156 62.058594 89.433594 54.023438 90.625 49.175781 " fill-opacity="1" fill-rule="nonzero"/></g><path fill="#8c52ff" d="M 97.953125 41.101562 C 95.519531 40.703125 93.933594 37.996094 94.410156 35.050781 C 94.890625 32.113281 97.253906 30.050781 99.6875 30.445312 C 102.121094 30.84375 103.707031 33.554688 103.226562 36.492188 C 102.75 39.4375 100.386719 41.5 97.953125 41.101562 " fill-opacity="1" fill-rule="nonzero"/><g clip-path="url(#6024ea9459)"><path fill="#f68712" d="M 26.511719 53.761719 C 26.597656 48.769531 15.085938 37.410156 15.085938 37.410156 C 15.085938 37.410156 28.53125 46.433594 33.292969 44.972656 C 37.050781 43.816406 43.378906 31.300781 43.378906 31.300781 C 42.503906 34.152344 41.269531 38.914062 40.539062 44.984375 C 39.550781 53.1875 40.007812 62.726562 49.570312 75.933594 C 49.570312 75.933594 37.21875 65.125 33.117188 63.707031 C 28.40625 62.085938 14.53125 69.710938 14.53125 69.710938 C 14.53125 69.710938 26.425781 58.75 26.511719 53.761719 " fill-opacity="1" fill-rule="nonzero"/></g><path fill="#f68712" d="M 31.867188 44.253906 C 29.40625 44.40625 27.261719 42.121094 27.074219 39.144531 C 26.890625 36.171875 28.734375 33.632812 31.199219 33.480469 C 33.660156 33.324219 35.804688 35.613281 35.988281 38.585938 C 36.175781 41.5625 34.328125 44.097656 31.867188 44.253906 " fill-opacity="1" fill-rule="nonzero"/></svg>